<svg width="47" height="47" viewBox="0 0 47 47" fill="none" xmlns="http://www.w3.org/2000/svg">
<rect x="2.1987" width="41.7778" height="45.076" rx="4.39766" fill="#00B14F"/>
<path d="M46.1753 42.0526V17.7084C46.1753 16.7326 45.3842 15.9415 44.4084 15.9415C43.4174 15.9415 42.6201 16.7565 42.6419 17.7473L43.1414 40.4763C43.1484 40.7919 43.106 41.109 42.9866 41.4012C41.4918 45.0584 38.4517 42.865 36.5569 40.9939C36.0136 40.4574 35.3007 40.1226 34.5372 40.113C27.4207 40.0238 14.0349 39.9211 11.5437 40.1287C10.8097 40.1898 10.2855 40.3942 9.91322 40.6792C8.62974 41.6614 7.67652 43.4269 6.06029 43.4269H5.77181C4.45251 43.4269 3.57298 41.7778 3.57298 40.9532V17.7281C3.57298 16.7414 2.77311 15.9415 1.78643 15.9415C0.799744 15.9415 -0.00012207 16.7367 -0.00012207 17.7234V41.5029C-0.00012207 45.2409 3.11489 46.3587 4.67239 46.4503H40.6782C44.6361 46.4503 45.9921 43.5185 46.1753 42.0526Z" fill="#000103"/>
</svg>
