<svg width="47" height="47" viewBox="0 0 47 47" fill="none" xmlns="http://www.w3.org/2000/svg">
<rect x="2.19881" width="41.7778" height="45.076" rx="4.39766" fill="#A1A3B0"/>
<path d="M46.1754 42.0526V17.7084C46.1754 16.7326 45.3844 15.9415 44.4085 15.9415C43.4175 15.9415 42.6203 16.7565 42.642 17.7473L43.1416 40.4763C43.1485 40.7919 43.1061 41.109 42.9867 41.4012C41.4919 45.0584 38.4518 42.865 36.557 40.9939C36.0137 40.4574 35.3008 40.1226 34.5373 40.113C27.4209 40.0238 14.0351 39.9211 11.5439 40.1287C10.8098 40.1898 10.2856 40.3942 9.91334 40.6792C8.62986 41.6614 7.67664 43.4269 6.06041 43.4269H5.77193C4.45263 43.4269 3.5731 41.7778 3.5731 40.9532V17.7281C3.5731 16.7414 2.77323 15.9415 1.78655 15.9415C0.799866 15.9415 0 16.7367 0 17.7234L0 41.5029C0 45.2409 3.11501 46.3587 4.67251 46.4503H40.6784C44.6363 46.4503 45.9922 43.5185 46.1754 42.0526Z" fill="#000103"/>
</svg>
