<svg width="47" height="45" viewBox="0 0 47 45" fill="none" xmlns="http://www.w3.org/2000/svg">
<rect x="2.09369" width="41.7778" height="42.8048" rx="4.39766" fill="#F54242"/>
<path d="M46.1754 40.6098V16.3096C46.1754 15.3338 45.3844 14.5428 44.4086 14.5428C43.4175 14.5428 42.6203 15.3577 42.6421 16.3485L43.1415 39.0345C43.1485 39.3506 43.106 39.6683 42.9861 39.9609C41.4911 43.61 38.4513 41.4204 36.5568 39.5526C36.0136 39.0171 35.3014 38.683 34.5387 38.6735C27.4226 38.5844 14.0352 38.4818 11.5439 38.689C10.8122 38.7499 10.2891 38.9528 9.91708 39.2358C8.63048 40.2142 7.67635 41.9817 6.05995 41.9817H5.77193C4.45263 41.9817 3.5731 40.3354 3.5731 39.5122V16.3293C3.5731 15.3426 2.77323 14.5428 1.78655 14.5428C0.799866 14.5428 0 15.3379 0 16.3246L0 40.061C0 43.7927 3.11501 44.9085 4.67251 45H40.6784C44.6363 45 45.9922 42.0732 46.1754 40.6098Z" fill="#000103"/>
</svg>
